<?xml version="1.0" encoding="utf-8"?>
<!-- Generator: Adobe Illustrator 15.0.0, SVG Export Plug-In . SVG Version: 6.00 Build 0)  -->
<!DOCTYPE svg PUBLIC "-//W3C//DTD SVG 1.1//EN" "http://www.w3.org/Graphics/SVG/1.1/DTD/svg11.dtd">
<svg version="1.1" id="Layer_1" xmlns="http://www.w3.org/2000/svg" xmlns:xlink="http://www.w3.org/1999/xlink" x="0px" y="0px"
	 width="16px" height="16px" viewBox="0 0 16 16" enable-background="new 0 0 16 16" xml:space="preserve">
<g>
	<path fill="#FFFFFF" d="M13.779,3.349c0-0.638-0.521-1.159-1.159-1.159H3.348c-0.638,0-1.159,0.521-1.159,1.159v9.271
		c0,0.638,0.521,1.159,1.159,1.159s1.159-0.521,1.159-1.159V4.507h8.112C13.257,4.507,13.779,3.986,13.779,3.349z"/>
	<path fill="#FFFFFF" d="M13.441,11.803L6.885,5.246c-0.451-0.451-1.188-0.451-1.64,0c-0.45,0.451-0.45,1.188,0,1.639l6.557,6.556
		c0.45,0.451,1.188,0.451,1.639,0S13.892,12.253,13.441,11.803z"/>
</g>
<path d="M14.164,11.111L8.576,5.522h4.06c1.19,0,2.159-0.968,2.159-2.158s-0.969-2.159-2.159-2.159H3.364
	c-1.19,0-2.159,0.969-2.159,2.159v9.271c0,1.19,0.969,2.159,2.159,2.159s2.159-0.969,2.159-2.159v-4.06l5.587,5.587
	c0.407,0.407,0.949,0.632,1.527,0.632c0.577,0,1.119-0.224,1.526-0.631s0.632-0.95,0.632-1.528
	C14.794,12.059,14.57,11.517,14.164,11.111z M4.507,4.507v8.113c0,0.638-0.521,1.159-1.159,1.159s-1.159-0.521-1.159-1.159V3.349
	c0-0.638,0.521-1.159,1.159-1.159h9.271c0.638,0,1.159,0.521,1.159,1.159c0,0.637-0.521,1.159-1.159,1.159H4.507z M13.441,13.441
	c-0.451,0.451-1.188,0.451-1.639,0L5.246,6.885c-0.45-0.451-0.45-1.188,0-1.639c0.451-0.451,1.188-0.451,1.64,0l6.556,6.557
	C13.892,12.253,13.892,12.99,13.441,13.441z"/>
</svg>
